<svg width="47" height="98" viewBox="0 0 47 98" fill="none" xmlns="http://www.w3.org/2000/svg">
<mask id="mask0_49_228" style="mask-type:luminance" maskUnits="userSpaceOnUse" x="0" y="0" width="47" height="98">
<path d="M0 0H46.6667V98H0V0Z" fill="white"/>
</mask>
<g mask="url(#mask0_49_228)">
<path d="M31.8697 11.0728C27.7395 6.21346 24.1874 1.27596 23.4582 0.249919C23.4426 0.229085 23.4218 0.21346 23.401 0.208252C23.3749 0.197835 23.3489 0.192627 23.328 0.192627C23.302 0.192627 23.276 0.197835 23.2551 0.208252C23.2291 0.21346 23.2082 0.229085 23.1926 0.249919C22.4635 1.27596 18.9114 6.21346 14.7812 11.0728C-20.6563 55.9374 20.3645 86.2135 20.3645 86.2135L20.7082 86.4426C21.0155 91.1145 21.776 97.8385 21.776 97.8385H24.8385C24.8385 97.8385 25.5989 91.151 25.9062 86.4426L26.2499 86.177C26.2864 86.2135 67.3072 55.9374 31.8697 11.0728ZM23.3072 85.5312C23.3072 85.5312 21.4739 83.9739 20.9739 83.1718V83.0989L23.1926 34.2447C23.1926 34.0937 23.4218 34.0937 23.4218 34.2447L25.6405 83.0989V83.1718C25.1405 83.9739 23.3072 85.5312 23.3072 85.5312Z" fill="#01EC64"/>
</g>
</svg>
