<svg width="167" height="60" viewBox="0 0 167 60" fill="none" xmlns="http://www.w3.org/2000/svg">
<path d="M61.5781 22C61.2604 22 60.9635 22.0781 60.6875 22.2396L45.8906 30.8021C45.3385 31.125 45 31.7396 45 32.3802V49.5677C45 50.2552 45.2969 50.776 45.8906 51.1198L60.6875 59.7083C61.2812 60.0573 61.875 60.0573 62.4688 59.7083L77.2656 51.1198C77.8594 50.776 78.1563 50.2552 78.1563 49.5677V32.3854C78.1563 31.7396 77.8177 31.125 77.2656 30.8021L62.4688 22.2396C62.1927 22.0781 61.8958 22 61.5781 22ZM150.068 37.3333C150.01 37.3333 149.943 37.3333 149.891 37.3646L147.047 39.0365C146.927 39.099 146.87 39.1979 146.865 39.3333V42.6146C146.865 42.7396 146.938 42.8542 147.047 42.9167L149.891 44.5573C150 44.625 150.109 44.625 150.219 44.5573L153.063 42.9167C153.172 42.8542 153.24 42.7396 153.24 42.6146V39.3333C153.24 39.2083 153.172 39.099 153.063 39.0365L150.219 37.3646C150.167 37.3333 150.13 37.3333 150.068 37.3333Z" fill="#83CD29"/>
<mask id="mask0_49_1181" style="mask-type:luminance" maskUnits="userSpaceOnUse" x="0" y="0" width="167" height="60">
<path d="M0 0H166.667V60H0V0Z" fill="white"/>
</mask>
<g mask="url(#mask0_49_1181)">
<path d="M112.005 8.13804e-05C111.849 8.13804e-05 111.703 0.0365394 111.563 0.114665C111.266 0.291749 111.12 0.546957 111.12 0.890706V23.7188C111.12 23.9428 111.016 24.1407 110.823 24.2553C110.615 24.3751 110.406 24.3751 110.198 24.2553L106.49 22.1042C105.901 21.7605 105.307 21.7605 104.714 22.1042L89.9167 30.698C89.3646 31.0209 89.026 31.6355 89.026 32.2813V49.4636C89.026 50.1511 89.3229 50.672 89.9167 51.0157L104.714 59.6095C105.307 59.9532 105.901 59.9532 106.495 59.6095L121.292 51.0157C121.885 50.672 122.182 50.1511 122.182 49.4636V6.61987C122.182 5.96883 121.828 5.35946 121.26 5.04175L112.453 0.0834147C112.313 0.00528938 112.161 -0.00512695 112.01 -0.00512695L112.005 8.13804e-05ZM16.8177 21.448C16.5313 21.4584 16.2708 21.5105 16.0156 21.6563L1.21875 30.2501C0.625001 30.5938 0.328125 31.1095 0.328125 31.8022L0.359375 54.8647C0.359375 55.1876 0.520834 55.4845 0.802083 55.6407C1.07813 55.8074 1.41667 55.8074 1.69271 55.6407L10.4688 50.5678C11.026 50.2345 11.3906 49.6563 11.3906 49.0157V38.2449C11.3906 37.6042 11.724 37.0157 12.2813 36.6928L16.0156 34.5157C16.2917 34.3542 16.5885 34.2761 16.9063 34.2761C17.224 34.2761 17.5208 34.3542 17.7969 34.5157L21.5313 36.6928C22.0833 37.0105 22.4219 37.6042 22.4219 38.2449V49.0157C22.4219 49.6563 22.7917 50.2397 23.3385 50.5626L32.1146 55.6355C32.3906 55.8022 32.7344 55.8022 33.0052 55.6355C33.276 55.4792 33.4531 55.1824 33.4531 54.8595L33.4792 31.8022C33.4844 31.1095 33.1875 30.5886 32.5938 30.2501L17.7969 21.6615C17.5469 21.5105 17.276 21.4636 16.9948 21.448H16.8177ZM149.786 21.6563C149.469 21.6563 149.172 21.7345 148.896 21.8959L134.099 30.4897C133.547 30.8126 133.208 31.3959 133.208 32.0417V49.224C133.208 49.8699 133.568 50.4584 134.125 50.7761L148.807 59.1928C149.349 59.5053 150.01 59.5261 150.557 59.224L159.453 54.2397C159.734 54.0834 159.927 53.7865 159.927 53.4636C159.927 53.1407 159.76 52.849 159.479 52.6876L144.594 44.0938C144.318 43.9376 144.12 43.6147 144.12 43.2917V37.9167C144.12 37.5938 144.318 37.3022 144.594 37.1407L149.219 34.4584C149.495 34.297 149.833 34.297 150.109 34.4584L154.745 37.1407C155.047 37.3126 155.193 37.573 155.193 37.9167V42.1511C155.193 42.5001 155.339 42.7553 155.635 42.9272C155.911 43.0886 156.25 43.0886 156.526 42.9272L165.391 37.7397C165.943 37.4167 166.281 36.8282 166.281 36.1876V32.0417C166.281 31.349 165.984 30.8334 165.391 30.4897L150.682 21.8959C150.406 21.7345 150.115 21.6563 149.792 21.6563H149.786ZM105.542 34.4897C105.625 34.4845 105.703 34.5053 105.776 34.547L110.849 37.5001C110.984 37.5782 111.089 37.7292 111.089 37.8855V43.797C111.089 43.9532 110.99 44.1042 110.849 44.1824L105.776 47.1355C105.641 47.2136 105.474 47.2136 105.333 47.1355L100.26 44.1824C100.125 44.1042 100.026 43.9532 100.026 43.797V37.8907C100.026 37.7292 100.125 37.5834 100.26 37.5001L105.333 34.547C105.401 34.5105 105.464 34.4897 105.542 34.4897Z" fill="#404137"/>
</g>
</svg>
